<?xml version="1.0" standalone="no"?>
<!DOCTYPE svg PUBLIC "-//W3C//DTD SVG 20010904//EN"
 "http://www.w3.org/TR/2001/REC-SVG-20010904/DTD/svg10.dtd">
<svg version="1.0" xmlns="http://www.w3.org/2000/svg"
 width="600.000000pt" height="600.000000pt" viewBox="0 0 600.000000 600.000000"
 preserveAspectRatio="xMidYMid meet">
<metadata>
Created by potrace 1.16, written by Peter Selinger 2001-2019
</metadata>
<g transform="translate(0.000000,600.000000) scale(0.100000,-0.100000)"
fill="#063" stroke="none">
<path d="M0 3000 l0 -3000 3000 0 3000 0 0 3000 0 3000 -3000 0 -3000 0 0
-3000z m3105 2840 c-14 -5 -1 -8 40 -8 41 0 54 3 40 8 -19 8 -19 9 3 9 12 1
25 -6 28 -14 4 -10 13 -13 26 -9 15 4 18 3 13 -7 -6 -9 -3 -11 8 -6 10 4 17 1
17 -5 0 -6 3 -8 7 -5 3 4 12 -1 20 -11 10 -11 12 -12 8 -2 -4 8 2 4 13 -9 10
-13 30 -33 43 -43 13 -11 17 -17 9 -13 -10 4 -9 2 2 -8 10 -8 15 -17 11 -20
-3 -4 -1 -7 6 -7 7 0 9 -4 6 -10 -3 -5 -2 -10 4 -10 6 0 8 -7 5 -15 -4 -8 -1
-15 5 -15 6 0 8 -12 4 -32 -4 -22 -3 -29 5 -24 8 5 12 -3 12 -24 0 -21 -4 -29
-12 -24 -8 5 -9 -2 -5 -24 4 -18 2 -32 -3 -32 -5 0 -6 -7 -3 -17 5 -12 3 -14
-7 -8 -10 6 -12 4 -7 -8 4 -10 2 -17 -4 -17 -6 0 -9 -7 -5 -15 3 -8 1 -15 -4
-15 -5 0 -7 -7 -4 -15 4 -8 1 -15 -6 -15 -7 0 -9 -8 -5 -21 4 -12 3 -19 -2
-16 -4 3 -8 -24 -8 -59 0 -35 4 -64 8 -64 5 0 5 -4 2 -10 -3 -5 -1 -10 5 -10
6 0 8 -4 5 -10 -3 -5 -1 -10 5 -10 6 0 8 -4 5 -10 -3 -5 -1 -10 5 -10 6 0 8
-10 4 -26 -5 -19 -4 -25 5 -20 7 5 11 -4 11 -29 0 -25 -4 -34 -11 -29 -9 5
-10 -1 -5 -20 4 -16 2 -26 -4 -26 -6 0 -8 -4 -5 -10 3 -5 1 -10 -4 -10 -6 0
-10 -4 -8 -8 1 -4 -12 -21 -30 -37 -27 -26 -30 -35 -26 -67 3 -23 9 -35 16
-31 6 4 8 0 4 -10 -3 -9 -1 -19 5 -23 7 -5 8 -2 3 7 -4 8 3 3 16 -11 14 -14
23 -31 20 -39 -3 -9 0 -12 7 -7 8 5 12 -3 12 -24 0 -18 4 -29 10 -25 6 3 10 2
10 -4 0 -6 6 -8 13 -5 7 2 21 -2 32 -10 19 -14 19 -15 3 -21 -28 -11 -21 -28
7 -21 15 4 25 2 25 -4 0 -7 8 -9 21 -5 16 5 19 4 14 -5 -5 -9 -2 -10 14 -5 13
4 21 2 21 -5 0 -7 7 -10 15 -6 8 3 15 1 15 -4 0 -5 7 -7 15 -4 8 4 15 1 15 -5
0 -6 7 -8 17 -4 12 5 14 3 8 -7 -6 -10 -4 -12 8 -7 10 3 17 2 17 -3 0 -5 7 -6
17 -3 12 5 14 3 8 -7 -6 -10 -4 -12 8 -7 10 3 17 2 17 -4 0 -6 5 -7 10 -4 6 3
10 2 10 -4 0 -6 7 -7 17 -4 12 5 14 3 8 -7 -6 -10 -4 -12 8 -7 10 3 17 2 17
-4 0 -6 5 -7 10 -4 6 3 10 1 10 -5 0 -6 5 -8 10 -5 6 3 10 1 10 -5 0 -6 5 -8
10 -5 6 3 10 1 10 -5 0 -6 5 -8 10 -5 6 3 10 1 10 -5 0 -6 5 -8 10 -5 6 3 10
1 10 -5 0 -6 5 -8 10 -5 6 3 10 1 10 -6 0 -7 3 -9 7 -6 3 4 12 -1 20 -11 8 -9
11 -11 8 -4 -6 11 -3 12 14 3 11 -7 21 -17 21 -23 0 -6 3 -8 7 -5 3 4 12 -1
20 -11 10 -11 12 -12 8 -2 -4 8 1 6 9 -4 9 -11 16 -16 16 -11 0 5 7 0 16 -11
8 -10 13 -12 9 -4 -4 8 1 6 9 -4 9 -11 16 -16 16 -10 0 5 7 0 15 -10 8 -11 15
-16 15 -10 0 5 5 2 10 -6 5 -8 14 -15 19 -15 6 0 17 -9 26 -20 9 -11 14 -13
10 -5 -4 8 3 4 15 -10 12 -14 19 -18 15 -10 -4 8 5 2 20 -15 14 -16 23 -23 19
-15 -4 8 19 -13 52 -47 32 -34 60 -66 61 -69 0 -4 8 -11 17 -16 9 -5 14 -13
11 -19 -4 -5 -1 -9 5 -9 6 0 8 -4 5 -10 -3 -5 -2 -10 4 -10 6 0 7 -7 4 -17 -5
-12 -3 -14 7 -8 10 6 12 4 7 -8 -3 -10 -2 -17 4 -17 6 0 8 -9 4 -20 -4 -12 -2
-20 5 -20 7 0 9 -12 4 -36 -5 -27 -4 -35 5 -30 8 5 11 -15 11 -71 0 -58 -3
-74 -11 -63 -8 11 -9 -2 -4 -48 5 -47 3 -62 -5 -57 -9 5 -10 -11 -6 -61 4 -46
3 -62 -3 -49 -7 15 -10 1 -10 -50 0 -51 3 -65 10 -50 6 14 8 1 4 -43 -3 -45
-2 -61 6 -56 9 5 10 -4 5 -31 -6 -28 -4 -35 5 -29 9 5 10 0 5 -20 -4 -15 -2
-26 4 -26 6 0 8 -11 4 -26 -5 -20 -4 -25 6 -19 9 5 10 2 5 -14 -4 -13 -2 -21
5 -21 7 0 9 -8 5 -20 -4 -11 -2 -20 4 -20 6 0 8 -7 5 -15 -4 -8 -1 -15 6 -15
7 0 9 -8 5 -21 -5 -16 -4 -19 5 -14 9 5 10 2 5 -14 -4 -13 -2 -21 5 -21 7 0 9
-8 5 -21 -5 -16 -4 -19 5 -14 9 6 10 -1 5 -25 -4 -18 -3 -30 1 -27 5 3 9 -48
9 -113 0 -66 -4 -116 -9 -113 -5 4 -6 -10 -2 -31 4 -23 3 -36 -4 -36 -6 0 -8
-10 -4 -26 5 -20 4 -25 -6 -19 -9 5 -10 2 -5 -14 4 -13 2 -21 -5 -21 -6 0 -9
-4 -6 -9 3 -4 -6 -6 -21 -3 -18 3 -24 1 -19 -7 6 -9 0 -10 -20 -5 -21 5 -25 4
-19 -6 6 -10 1 -12 -19 -8 -14 3 -26 1 -26 -4 0 -5 -5 -6 -12 -2 -7 4 -8 3 -4
-5 4 -6 0 -14 -8 -17 -9 -3 -13 -10 -10 -15 3 -5 0 -9 -6 -9 -6 0 -8 -5 -5
-10 3 -5 1 -10 -4 -10 -6 0 -10 -3 -8 -8 1 -4 -9 -19 -22 -32 -13 -14 -21 -19
-17 -13 5 9 2 11 -8 7 -9 -3 -14 -10 -11 -14 3 -4 -14 -6 -37 -4 -34 3 -39 2
-23 -6 16 -8 11 -9 -22 -6 -24 2 -43 0 -43 -5 0 -4 -7 -6 -15 -3 -8 4 -15 1
-15 -5 0 -6 -7 -8 -17 -4 -12 5 -14 3 -8 -7 6 -10 4 -12 -8 -7 -10 3 -17 2
-17 -4 0 -6 -4 -8 -9 -5 -5 4 -11 1 -13 -4 -2 -7 -11 -5 -23 4 -15 12 -17 18
-7 24 7 5 10 16 6 27 -6 14 -4 16 6 10 10 -6 11 -2 6 19 -4 16 -2 26 5 26 7 0
8 11 4 30 -4 19 -3 30 5 30 7 0 9 17 5 53 -5 39 -4 48 4 37 9 -11 11 -1 9 43
l-1 57 -35 -6 c-27 -5 -33 -4 -27 6 5 9 2 10 -15 5 -17 -5 -20 -4 -15 5 5 8 3
11 -6 8 -8 -3 -20 2 -27 11 -8 9 -11 10 -7 4 4 -9 1 -11 -9 -7 -9 3 -14 9 -12
13 2 3 -18 6 -44 6 -26 0 -46 -4 -43 -9 3 -5 0 -6 -8 -4 -8 3 -20 -2 -27 -11
-8 -9 -11 -10 -7 -3 10 19 0 14 -26 -15 -13 -14 -17 -23 -9 -18 8 4 -1 -7 -20
-26 -19 -18 -38 -32 -42 -31 -5 1 -8 -2 -8 -8 0 -5 -7 -7 -15 -4 -8 4 -15 1
-15 -6 0 -8 -10 -9 -31 -5 -24 6 -30 4 -24 -6 6 -8 3 -11 -11 -7 -17 4 -19 0
-15 -35 2 -29 0 -38 -9 -32 -9 6 -10 -3 -5 -35 6 -33 4 -41 -5 -35 -10 6 -11
-1 -6 -30 5 -27 4 -35 -4 -30 -9 6 -10 -1 -5 -25 5 -25 4 -31 -5 -25 -10 6
-11 1 -6 -19 4 -16 2 -26 -4 -26 -7 0 -9 -8 -5 -20 4 -12 2 -20 -5 -20 -7 0
-9 -8 -5 -20 4 -12 2 -20 -5 -20 -7 0 -9 -8 -5 -21 5 -16 4 -19 -5 -14 -9 5
-10 2 -5 -14 4 -12 2 -21 -4 -21 -6 0 -8 -7 -5 -15 4 -8 1 -15 -5 -15 -6 0 -8
-7 -5 -15 4 -8 1 -15 -5 -15 -6 0 -8 -7 -4 -17 5 -12 3 -14 -7 -8 -10 6 -12 4
-7 -8 3 -10 2 -17 -3 -17 -6 0 -10 -5 -10 -11 0 -5 5 -7 10 -4 6 3 10 1 10 -5
0 -6 5 -8 10 -5 6 3 10 2 10 -4 0 -6 10 -15 21 -22 17 -9 20 -8 14 3 -3 7 1 4
9 -6 9 -11 16 -16 16 -11 0 5 7 0 16 -11 8 -10 13 -12 9 -4 -4 8 1 6 9 -4 9
-11 16 -16 16 -11 0 5 7 0 16 -11 8 -10 13 -12 9 -4 -4 8 1 6 9 -4 9 -11 16
-16 16 -11 0 5 7 0 16 -11 8 -10 13 -12 9 -4 -4 10 -2 9 8 -2 8 -10 17 -15 20
-11 4 3 7 0 7 -7 0 -7 3 -10 7 -7 3 4 12 -1 20 -11 10 -11 12 -12 8 -2 -4 8 1
6 9 -4 9 -11 16 -16 16 -11 0 5 7 0 16 -11 8 -10 13 -12 9 -4 -4 8 1 6 9 -4 9
-11 16 -16 16 -11 0 5 7 0 16 -11 8 -10 13 -12 9 -4 -4 10 -2 9 8 -2 8 -10 17
-15 20 -11 4 3 7 1 7 -5 0 -6 10 -16 21 -23 17 -9 20 -8 14 3 -3 7 1 4 9 -6 9
-11 16 -16 16 -11 0 5 7 0 16 -11 8 -10 13 -12 9 -4 -4 8 1 6 9 -4 9 -11 16
-16 16 -11 0 5 7 0 16 -11 8 -10 13 -12 9 -4 -4 8 1 6 9 -4 9 -11 16 -16 16
-11 0 5 7 0 16 -11 8 -10 13 -12 9 -4 -4 8 1 6 9 -4 9 -11 16 -16 16 -11 0 5
7 0 16 -11 8 -10 13 -12 9 -4 -4 10 -2 9 8 -2 8 -10 17 -15 20 -11 4 3 7 0 7
-7 0 -7 3 -10 7 -7 3 4 12 -1 20 -11 10 -11 12 -12 8 -2 -4 8 1 6 9 -4 9 -11
16 -16 16 -11 0 5 7 0 16 -11 8 -10 13 -12 9 -4 -4 8 1 6 9 -4 9 -11 16 -16
16 -11 0 5 7 0 16 -11 8 -10 13 -12 9 -4 -4 8 1 6 9 -4 9 -11 16 -16 16 -11 0
5 7 0 16 -11 8 -10 13 -12 9 -4 -4 8 1 6 9 -4 9 -11 16 -16 16 -11 0 5 7 0 16
-11 8 -10 13 -12 9 -4 -4 10 -2 9 8 -2 8 -10 17 -15 20 -11 4 3 7 0 7 -7 0 -7
3 -10 7 -7 3 4 12 -1 20 -11 10 -11 12 -12 8 -2 -4 8 1 6 9 -4 9 -11 16 -16
16 -11 0 5 7 0 16 -11 8 -10 13 -12 9 -4 -4 8 1 6 9 -4 9 -11 16 -16 16 -11 0
5 7 0 16 -11 8 -10 13 -12 9 -4 -4 8 1 6 9 -4 9 -11 16 -16 16 -11 0 5 7 0 16
-11 8 -10 13 -12 9 -4 -4 8 3 4 15 -10 12 -14 19 -18 15 -10 -4 8 1 6 9 -4 9
-11 16 -16 16 -11 0 5 7 0 15 -11 8 -10 15 -15 15 -10 0 6 7 1 16 -10 8 -10
12 -12 9 -4 -4 8 5 2 20 -15 14 -16 23 -23 19 -15 -5 10 0 9 14 -4 29 -25 28
-31 -8 -32 -18 -1 -27 3 -23 9 4 6 0 8 -11 4 -11 -5 -15 -3 -10 5 5 8 2 9 -10
5 -11 -5 -15 -3 -10 5 5 8 2 9 -10 5 -9 -4 -15 -3 -12 2 3 5 -1 12 -10 15 -9
4 -13 2 -8 -5 4 -8 0 -7 -15 0 -11 7 -21 16 -21 22 0 6 -4 7 -10 4 -5 -3 -10
-1 -10 5 0 6 -4 8 -10 5 -5 -3 -10 -1 -10 6 0 7 -3 9 -7 6 -3 -4 -12 1 -20 11
-10 11 -12 12 -8 2 4 -10 2 -9 -8 2 -8 10 -17 15 -20 11 -4 -3 -7 0 -7 7 0 7
-3 10 -7 7 -3 -4 -12 1 -20 11 -10 11 -12 12 -8 2 4 -10 2 -9 -8 2 -8 10 -17
15 -20 11 -4 -3 -7 0 -7 7 0 7 -3 10 -7 7 -3 -4 -12 1 -20 11 -10 11 -12 12
-8 2 4 -10 2 -9 -8 2 -8 10 -17 15 -20 11 -4 -3 -7 0 -7 7 0 7 -3 10 -7 7 -3
-4 -12 1 -20 11 -10 11 -12 12 -8 2 4 -8 -1 -6 -9 4 -9 11 -16 16 -16 11 0 -5
-7 0 -16 11 -8 10 -12 13 -9 6 6 -11 3 -12 -14 -3 -11 7 -21 17 -21 23 0 6 -3
8 -7 5 -3 -4 -12 1 -20 11 -10 11 -12 12 -8 2 4 -10 2 -9 -8 2 -8 10 -17 15
-20 11 -4 -3 -7 0 -7 7 0 7 -3 10 -7 7 -3 -4 -12 1 -20 11 -10 11 -12 12 -8 2
4 -10 2 -9 -8 2 -8 10 -17 15 -20 11 -4 -3 -7 -1 -7 5 0 6 -10 16 -21 23 -17
9 -20 8 -14 -3 3 -7 -1 -4 -9 6 -9 11 -16 16 -16 11 0 -5 -7 0 -16 11 -8 10
-13 12 -9 4 4 -10 2 -9 -8 2 -8 10 -17 15 -20 11 -4 -3 -7 0 -7 7 0 7 -3 10
-7 7 -3 -4 -12 1 -20 11 -10 11 -12 12 -8 2 4 -10 2 -9 -8 2 -8 10 -17 15 -20
11 -4 -3 -7 0 -7 7 0 7 -3 10 -7 7 -3 -4 -12 1 -20 11 -10 11 -12 12 -8 2 4
-8 -1 -6 -9 4 -9 11 -16 16 -16 11 0 -5 -7 0 -16 11 -8 10 -13 12 -9 4 4 -10
2 -9 -8 2 -8 10 -17 15 -20 11 -4 -3 -7 0 -7 7 0 7 -3 10 -7 7 -3 -4 -12 1
-20 11 -10 11 -12 12 -8 2 4 -10 2 -9 -8 2 -8 10 -17 15 -20 11 -4 -3 -7 0 -7
7 0 7 -3 10 -7 7 -3 -4 -12 1 -20 11 -10 11 -12 12 -8 2 4 -8 -1 -6 -9 4 -9
11 -16 16 -16 11 0 -5 -7 0 -16 11 -8 10 -13 12 -9 4 4 -10 2 -9 -8 2 -8 10
-17 15 -20 11 -4 -3 -7 0 -7 7 0 7 -3 10 -7 7 -3 -4 -12 1 -20 11 -10 11 -12
12 -8 2 4 -8 -1 -6 -9 4 -9 11 -16 16 -16 11 0 -5 -7 0 -16 11 -8 10 -13 12
-9 4 4 -10 2 -9 -8 2 -8 10 -17 15 -20 11 -4 -3 -7 0 -7 7 0 7 -3 10 -7 7 -3
-4 -12 1 -20 11 -10 11 -12 12 -8 2 5 -12 4 -12 -7 1 -13 16 -43 15 -32 -2 3
-5 1 -9 -5 -9 -6 0 -8 -7 -5 -15 4 -8 1 -15 -5 -15 -6 0 -8 -7 -5 -15 4 -8 1
-15 -5 -15 -6 0 -8 -12 -4 -32 4 -22 3 -29 -5 -24 -9 5 -12 -18 -12 -86 0 -68
3 -89 11 -78 8 11 9 2 4 -34 -5 -36 -4 -46 6 -41 9 6 10 -1 5 -30 -5 -25 -4
-35 3 -30 7 4 11 -11 11 -45 0 -36 -3 -49 -11 -44 -9 5 -10 -4 -5 -31 6 -28 4
-35 -5 -29 -9 5 -10 0 -5 -20 4 -16 2 -26 -4 -26 -7 0 -9 -8 -5 -20 4 -12 2
-20 -5 -20 -7 0 -9 -8 -5 -21 5 -16 4 -19 -5 -14 -9 5 -10 2 -5 -14 4 -12 2
-21 -4 -21 -6 0 -8 -7 -5 -15 4 -8 1 -15 -6 -15 -7 0 -10 -6 -7 -14 3 -8 1
-17 -6 -19 -7 -3 0 -10 15 -15 19 -8 26 -16 22 -27 -3 -8 -2 -15 4 -15 6 0 8
-10 4 -22 -4 -16 -2 -19 8 -13 10 6 11 2 6 -19 -4 -16 -2 -26 5 -26 7 0 8 -11
4 -31 -5 -21 -4 -29 3 -25 7 4 10 -11 9 -43 -1 -27 -5 -47 -9 -44 -5 2 -8 -1
-8 -7 0 -6 -4 -8 -10 -5 -5 3 -10 1 -10 -5 0 -6 -5 -8 -10 -5 -19 12 -40 -15
-33 -43 4 -17 2 -23 -6 -18 -8 5 -11 -12 -11 -59 0 -48 3 -64 12 -59 8 5 9 -2
5 -25 -5 -23 -3 -30 5 -25 8 5 9 2 5 -9 -3 -10 -2 -17 3 -17 5 0 6 -7 3 -17
-4 -9 -2 -14 3 -10 6 3 10 -22 10 -63 1 -44 -3 -67 -9 -63 -6 4 -7 -4 -3 -21
5 -20 4 -26 -5 -20 -8 5 -10 2 -6 -9 3 -9 0 -18 -9 -21 -10 -4 -13 -13 -8 -32
5 -20 4 -25 -5 -19 -8 5 -11 1 -9 -11 2 -11 -2 -18 -9 -17 -7 2 -13 -2 -13 -8
0 -6 -9 -8 -21 -4 -15 5 -19 4 -15 -4 4 -6 1 -11 -7 -11 -10 0 -13 7 -10 19 7
26 -12 35 -28 13 -12 -15 -12 -16 1 -7 10 6 9 4 -2 -6 -9 -9 -14 -20 -10 -24
4 -4 -11 -23 -33 -42 -22 -19 -34 -32 -27 -28 19 10 14 0 -10 -21 -12 -10 -18
-13 -14 -7 5 9 2 11 -8 7 -9 -3 -13 -11 -10 -16 4 -6 -2 -7 -16 -3 -12 4 -20
3 -17 -1 3 -5 -54 -10 -126 -11 -84 -1 -125 2 -116 8 10 7 7 9 -11 7 -14 -2
-31 4 -38 12 -12 13 -13 13 -6 0 4 -8 4 -12 -1 -8 -11 11 -14 118 -3 118 5 0
7 4 4 8 -5 9 46 64 58 64 3 -1 20 13 38 30 18 18 26 28 18 24 -12 -6 -11 -5 1
6 9 7 14 19 12 26 -3 6 -1 12 4 12 4 0 8 20 8 45 0 25 -3 45 -8 45 -5 0 -5 10
-2 21 5 16 4 19 -6 14 -9 -6 -11 -3 -6 8 3 10 2 17 -4 17 -6 0 -7 5 -4 10 3 6
2 10 -3 10 -17 0 -7 69 13 86 11 8 13 13 5 9 -13 -6 -13 -5 0 7 8 7 14 24 12
37 -3 15 0 21 8 16 7 -4 10 5 8 29 -2 29 -6 36 -23 36 -16 0 -17 -2 -5 -10 11
-7 6 -10 -20 -10 -28 0 -32 3 -20 11 11 8 6 9 -23 5 -26 -3 -35 -1 -31 6 5 7
0 9 -12 6 -15 -4 -19 1 -19 24 0 15 4 28 9 28 4 0 6 7 2 15 -3 8 -1 15 5 15 6
0 7 5 4 10 -3 6 -1 10 5 10 6 0 8 5 5 10 -3 6 -1 10 5 10 6 0 8 5 5 10 -3 6
-1 10 5 10 6 0 8 5 5 10 -3 6 -1 10 5 10 6 0 8 5 5 10 -3 6 -1 10 6 10 7 0 9
3 6 7 -4 3 1 12 11 20 11 10 12 12 2 8 -10 -4 -9 -2 2 8 10 8 15 17 11 20 -3
4 -1 7 5 7 7 0 11 6 9 13 -1 7 6 11 17 9 11 -2 15 1 11 8 -5 8 3 9 29 5 37 -7
51 7 20 19 -9 4 -14 13 -10 21 3 8 1 15 -4 15 -5 0 -6 7 -3 17 4 11 3 14 -6 9
-9 -6 -10 0 -5 20 4 15 3 25 -2 21 -5 -3 -9 42 -9 103 0 61 4 106 9 103 5 -4
6 6 2 21 -3 14 -3 26 1 26 5 0 8 47 8 104 0 59 -4 102 -9 99 -5 -4 -6 6 -2 21
5 20 3 26 -5 21 -8 -5 -9 -1 -4 15 5 16 4 20 -4 15 -8 -5 -10 1 -5 21 5 19 4
25 -5 20 -8 -6 -10 4 -5 36 4 32 3 39 -5 28 -8 -11 -9 7 -5 69 7 76 6 83 -8
70 -9 -8 -14 -17 -11 -21 2 -5 -1 -8 -7 -8 -6 0 -8 -4 -5 -10 3 -5 1 -10 -5
-10 -6 0 -8 -4 -5 -10 3 -5 1 -10 -5 -10 -6 0 -8 -4 -5 -10 3 -5 2 -10 -4 -10
-6 0 -8 -7 -5 -15 4 -8 1 -15 -5 -15 -6 0 -8 -7 -5 -15 4 -8 1 -15 -5 -15 -7
0 -9 -10 -5 -26 5 -21 4 -25 -6 -19 -10 6 -11 0 -6 -29 5 -24 3 -36 -4 -36 -7
0 -9 -8 -5 -21 5 -16 4 -19 -6 -14 -9 6 -11 3 -6 -8 3 -10 2 -17 -4 -17 -6 0
-7 -5 -4 -10 3 -5 1 -10 -5 -10 -6 0 -8 -5 -5 -10 3 -6 1 -10 -5 -10 -6 0 -8
-5 -5 -10 3 -5 1 -10 -5 -10 -6 0 -9 -4 -5 -9 3 -6 -3 -14 -12 -20 -10 -6 -15
-11 -10 -11 4 0 -23 -30 -60 -66 -38 -37 -61 -64 -53 -60 8 4 6 0 -4 -8 -11
-9 -16 -16 -10 -16 5 0 1 -5 -9 -11 -9 -6 -15 -14 -12 -20 4 -5 1 -9 -5 -9 -6
0 -8 -5 -5 -10 3 -6 1 -10 -5 -10 -6 0 -8 -4 -5 -10 3 -5 1 -10 -5 -10 -6 0
-8 -4 -5 -10 3 -5 1 -10 -5 -10 -6 0 -8 -4 -5 -10 3 -5 2 -10 -4 -10 -6 0 -7
-7 -4 -17 5 -12 3 -14 -7 -8 -10 6 -12 4 -7 -8 3 -10 2 -17 -4 -17 -6 0 -7 -4
-4 -10 3 -5 1 -10 -6 -10 -7 0 -9 -3 -6 -7 4 -3 -1 -12 -11 -20 -11 -9 -12
-12 -2 -8 8 4 2 -5 -15 -20 -16 -14 -23 -23 -15 -19 8 4 -10 -17 -40 -46 -30
-29 -48 -47 -38 -41 22 16 24 9 27 -88 2 -64 0 -82 -10 -76 -9 6 -10 1 -5 -19
4 -16 2 -26 -4 -26 -7 0 -9 -8 -5 -21 5 -16 4 -19 -6 -14 -9 6 -11 3 -6 -8 3
-10 2 -17 -3 -17 -5 0 -7 -7 -4 -15 4 -8 -1 -17 -10 -21 -9 -3 -14 -10 -11
-15 3 -4 -4 -6 -16 -4 -13 3 -25 9 -29 15 -5 7 -15 8 -32 1 -14 -5 -29 -7 -34
-3 -4 4 -4 -1 -1 -10 4 -10 2 -18 -4 -18 -6 0 -7 -4 -4 -10 3 -5 1 -10 -6 -10
-7 0 -9 -3 -6 -7 4 -3 -1 -12 -11 -20 -11 -10 -12 -12 -2 -8 8 4 6 -1 -4 -9
-11 -9 -16 -16 -10 -16 5 0 0 -7 -10 -15 -11 -8 -16 -15 -10 -15 5 0 -2 -10
-16 -21 -14 -11 -18 -18 -10 -14 8 4 2 -5 -15 -20 -16 -14 -23 -23 -15 -20 8
4 -5 -12 -30 -35 -25 -23 -36 -37 -25 -30 13 8 11 4 -6 -12 -14 -13 -24 -29
-21 -36 2 -7 -1 -12 -7 -12 -7 0 -9 -10 -5 -26 5 -19 4 -25 -5 -20 -7 5 -11
-4 -11 -29 0 -20 4 -34 9 -31 5 3 8 -17 7 -46 -1 -36 -7 -58 -21 -73 -11 -12
-23 -20 -27 -18 -5 2 -8 -1 -8 -7 0 -7 -8 -9 -21 -5 -13 4 -19 3 -16 -3 4 -5
-9 -9 -30 -8 -25 1 -45 10 -67 31 -18 17 -31 32 -30 35 2 3 -8 5 -22 5 -26 -2
-64 -31 -61 -49 1 -6 -4 -10 -11 -8 -7 1 -15 -5 -18 -13 -3 -8 -10 -12 -15 -9
-5 3 -9 0 -9 -6 0 -6 -4 -8 -10 -5 -5 3 -10 1 -10 -5 0 -7 -8 -9 -21 -5 -15 5
-19 4 -14 -4 5 -8 -1 -10 -19 -5 -17 4 -26 2 -26 -6 0 -8 -16 -10 -57 -5 -45
5 -54 4 -43 -5 11 -9 -1 -10 -54 -5 -43 4 -66 3 -62 -3 6 -10 -52 -23 -99 -20
-26 1 -25 2 10 8 34 6 29 7 -33 9 -56 1 -71 -2 -66 -11 4 -7 4 -10 0 -6 -5 4
-8 33 -9 65 0 57 1 59 53 111 30 31 58 51 66 48 8 -3 14 -1 14 5 0 6 5 7 10 4
6 -3 10 -1 10 5 0 6 5 8 10 5 6 -3 10 -2 10 4 0 6 7 7 17 4 12 -5 14 -3 8 7
-6 10 -4 12 8 7 10 -3 17 -2 17 4 0 6 5 7 10 4 6 -3 10 -1 10 5 0 6 5 8 10 5
5 -3 10 -2 10 4 0 6 7 7 17 4 12 -5 14 -3 8 7 -6 10 -4 12 8 7 10 -3 17 -2 17
4 0 6 5 7 10 4 6 -3 10 -1 10 5 0 6 5 8 10 5 6 -3 10 -1 10 5 0 6 4 8 10 5 13
-8 50 12 73 39 10 11 15 15 11 7 -4 -8 -3 -12 3 -8 5 3 8 20 5 38 -4 24 -2 30
8 24 10 -6 12 -2 8 13 -4 12 -2 22 3 22 4 0 5 7 2 17 -5 12 -3 14 7 8 10 -6
12 -4 7 8 -3 10 -2 17 4 17 6 0 7 5 4 10 -3 6 -1 10 5 10 6 0 8 5 5 10 -3 6
-1 10 5 10 6 0 8 5 5 10 -3 6 -1 10 5 10 6 0 9 4 6 9 -8 12 4 42 14 36 10 -6
22 24 14 36 -3 5 0 9 6 9 6 0 8 5 5 10 -3 6 -1 10 5 10 6 0 8 4 5 10 -3 5 -1
10 5 10 6 0 8 5 5 10 -3 6 -1 10 5 10 6 0 8 5 5 10 -3 6 -1 10 5 10 6 0 8 5 5
10 -3 6 -1 10 5 10 6 0 8 5 5 10 -3 6 -2 10 3 10 16 0 9 30 -11 47 -15 13 -18
14 -13 3 4 -8 -2 -4 -14 10 -12 14 -18 18 -14 10 6 -12 4 -13 -6 -3 -16 15
-21 53 -7 53 6 0 7 3 4 7 -4 3 1 12 11 20 11 9 12 12 2 8 -8 -4 -1 5 15 20 17
14 23 24 15 20 -8 -3 0 7 18 23 19 17 47 45 64 64 16 18 26 26 23 18 -4 -8 8
1 25 20 17 19 29 28 25 20 -4 -10 -1 -9 8 3 15 18 43 24 32 7 -3 -5 1 -10 9
-10 12 0 14 7 9 32 -5 24 -3 29 7 23 9 -6 11 0 5 24 -4 21 -3 31 5 31 8 0 9
10 5 31 -5 24 -4 30 5 24 9 -6 10 3 5 35 -6 33 -4 41 5 35 10 -6 11 3 6 43 -4
35 -3 52 4 52 7 0 9 8 5 20 -4 12 -2 20 5 20 6 0 8 5 5 10 -3 6 -1 10 6 10 7
0 9 3 6 7 -4 3 1 12 11 20 11 10 12 12 2 8 -8 -4 1 8 20 25 19 17 28 29 20 25
-8 -4 3 10 25 30 22 20 33 34 25 30 -8 -4 -1 5 15 19 17 14 26 26 21 26 -6 0
-1 7 10 16 10 8 12 13 4 9 -9 -4 -7 0 4 9 10 8 15 19 11 25 -3 6 -1 11 4 11 6
0 11 14 11 30 0 17 -3 30 -7 30 -5 0 -8 23 -8 50 0 28 3 50 7 50 4 0 5 7 2 15
-4 8 1 17 10 21 9 3 13 10 10 15 -3 5 0 9 6 9 6 0 8 4 5 10 -3 5 -2 10 4 10 6
0 7 7 4 17 -5 12 -3 14 7 8 10 -6 12 -4 7 8 -3 10 -2 17 4 17 6 0 7 5 4 10 -3
6 -1 10 5 10 6 0 8 5 5 10 -3 6 -2 10 4 10 6 0 7 7 4 17 -5 12 -3 14 7 8 10
-6 12 -4 7 8 -3 10 -2 17 4 17 6 0 7 5 4 10 -3 6 -1 10 5 10 6 0 8 5 5 10 -3
6 -2 10 4 10 6 0 7 7 4 17 -5 12 -3 14 7 8 10 -6 12 -4 7 8 -4 10 -2 17 4 17
6 0 9 7 5 15 -3 8 -1 15 4 15 6 0 10 8 10 18 0 9 -4 13 -8 7 -9 -12 -52 -15
-52 -3 0 4 4 8 9 8 6 0 9 9 8 21 -1 18 -6 20 -40 15 -27 -5 -36 -3 -31 5 4 8
0 9 -15 4 -13 -4 -21 -2 -21 5 0 6 -4 8 -10 5 -5 -3 -10 -1 -10 5 0 6 -4 8
-10 5 -5 -3 -10 -1 -10 6 0 7 -3 10 -6 6 -4 -3 -15 4 -26 16 -11 12 -17 16
-13 10 10 -21 1 -15 -31 19 -16 17 -22 28 -14 24 8 -4 4 2 -10 14 -14 12 -18
19 -10 15 12 -5 12 -4 -1 7 -9 7 -14 19 -12 26 3 6 0 12 -6 12 -6 0 -8 7 -5
15 4 8 2 15 -2 15 -5 0 -9 29 -9 65 0 36 4 65 8 65 5 0 5 9 2 20 -4 12 -2 20
5 20 6 0 9 3 7 8 -3 4 0 12 7 17 13 12 56 15 56 4 0 -5 7 -6 16 -2 12 4 14 14
9 46 -4 23 -3 37 2 34 6 -4 9 27 9 74 -1 43 -5 79 -10 79 -4 0 -5 12 -2 26 5
18 3 24 -5 18 -9 -5 -10 1 -5 20 5 20 4 26 -5 20 -9 -5 -10 -2 -6 9 3 10 2 17
-4 17 -6 0 -7 5 -4 10 3 6 1 10 -5 10 -6 0 -8 5 -5 10 3 6 1 10 -5 10 -6 0 -9
4 -6 9 3 5 -1 12 -9 15 -8 3 -14 9 -13 14 2 5 -12 21 -29 36 -35 30 -46 70
-16 59 11 -5 14 -3 8 6 -5 10 -2 11 12 7 14 -4 19 -1 20 14 1 11 -3 20 -9 20
-5 0 -7 7 -4 15 3 9 -1 18 -9 21 -8 4 -13 10 -10 15 3 4 -4 13 -15 19 -11 6
-18 15 -15 21 4 5 3 9 -2 9 -4 0 -8 38 -8 85 0 47 4 85 8 85 5 0 5 9 2 20 -4
11 -2 20 4 20 6 0 7 7 4 17 -5 12 -3 14 7 8 8 -5 11 -3 8 6 -3 8 2 20 11 27
13 11 13 12 1 6 -8 -3 1 8 20 25 19 18 28 29 20 26 -8 -4 -6 1 5 10 11 9 19
21 17 26 -1 5 3 9 9 9 5 0 7 5 4 10 -3 6 -1 10 5 10 6 0 8 5 5 10 -3 6 -1 10
5 10 6 0 8 5 5 10 -3 6 -2 10 4 10 6 0 8 7 5 15 -4 8 -1 15 5 15 6 0 8 7 5 15
-4 8 -2 15 4 15 6 0 8 10 4 22 -3 15 -2 19 7 14 9 -6 10 0 5 20 -5 21 -4 25 6
19 10 -6 11 -2 6 19 -4 16 -2 26 5 26 7 0 8 11 4 31 -5 23 -4 30 5 24 9 -5 10
-2 5 14 -4 13 -2 21 5 21 6 0 8 5 5 10 -3 6 -1 10 5 10 6 0 8 5 5 10 -3 6 -1
10 6 10 7 0 9 3 6 7 -4 3 1 12 11 20 11 10 12 12 2 8 -8 -4 -4 3 10 15 14 12
18 19 10 15 -8 -4 -6 1 5 10 11 9 20 19 20 24 0 4 14 20 30 35 17 15 23 24 15
20 -8 -4 19 27 60 70 41 42 74 82 72 90 -1 7 5 20 15 27 15 12 16 12 9 -1 -4
-8 2 -4 14 10 12 14 19 18 15 10 -4 -8 1 -6 10 5 9 11 19 19 23 17 3 -2 8 1
10 7 2 6 0 11 -5 11 -6 0 -10 14 -10 30 0 17 4 30 9 30 5 0 6 5 3 10 -3 6 -1
10 4 10 6 0 11 4 11 9 0 4 -15 8 -32 7 -25 -1 -33 -5 -32 -18 1 -10 -3 -18 -9
-18 -6 0 -7 -3 -4 -7 4 -3 -1 -12 -11 -20 -9 -8 -11 -12 -4 -8 20 10 14 1 -20
-31 -17 -16 -28 -22 -24 -14 4 8 -1 4 -12 -9 -11 -13 -24 -21 -31 -17 -6 4
-11 3 -11 -3 0 -6 -7 -7 -17 -4 -11 4 -14 3 -9 -6 6 -9 -1 -11 -31 -6 -28 5
-34 4 -23 -4 11 -8 4 -11 -33 -11 -34 0 -46 3 -41 12 5 8 -2 9 -24 5 -20 -4
-32 -2 -32 4 0 6 -6 9 -12 6 -7 -2 -19 3 -26 12 -11 13 -12 13 -6 1 5 -10 1
-9 -14 4 -12 10 -19 23 -16 27 3 5 2 9 -3 9 -4 0 -8 20 -8 45 0 25 4 45 8 45
5 0 5 5 2 10 -3 6 -1 10 5 10 6 0 9 4 6 9 -3 5 5 17 19 27 13 10 22 21 19 26
-3 4 -1 8 4 8 6 0 9 12 8 27 -1 34 -51 84 -73 76 -12 -5 -14 -3 -8 7 6 10 0
12 -24 8 -17 -2 -31 0 -31 5 0 6 -3 7 -7 4 -11 -12 -42 24 -36 41 4 10 2 13
-5 8 -9 -5 -12 5 -12 34 0 29 3 39 12 34 8 -5 9 -2 5 9 -3 10 -2 17 4 17 6 0
7 5 4 10 -3 6 1 10 11 10 12 0 15 -7 12 -30 -3 -16 -1 -30 4 -30 5 0 7 -4 4
-9 -3 -5 2 -15 11 -22 14 -12 16 -12 9 1 -6 13 -5 13 6 0 7 -9 21 -14 32 -12
13 3 16 0 11 -9 -6 -9 3 -11 38 -7 26 3 44 2 41 -3 -3 -5 0 -9 5 -9 6 0 11 9
11 21 0 11 -4 17 -10 14 -6 -4 -10 5 -10 20 0 17 4 24 11 19 9 -5 10 1 5 20
-4 16 -2 26 4 26 6 0 8 5 5 10 -3 6 -1 10 6 10 7 0 10 2 7 5 -6 7 74 90 85 87
4 -1 7 2 7 8 0 5 10 14 21 21 17 9 20 8 14 -3 -3 -7 0 -5 8 4 8 10 17 15 20
11 4 -3 7 0 7 7 0 7 3 10 7 7 3 -4 12 1 20 11 10 11 12 12 8 2 -4 -8 1 -6 9 4
9 11 16 16 16 11 0 -5 7 0 16 11 8 10 13 13 9 7 -11 -22 5 -14 32 15 15 15 23
20 18 12 -5 -9 -5 -12 1 -7 14 13 11 30 -6 45 -13 12 -13 12 0 6 8 -4 4 5 -9
19 -13 15 -28 24 -32 21 -5 -3 -9 -1 -9 4 0 6 -10 8 -22 4 -14 -3 -19 -2 -14
6 5 8 -2 12 -19 12 -17 0 -24 -4 -19 -11 4 -8 -1 -9 -16 -4 -15 5 -20 4 -16
-4 6 -10 -5 -15 -25 -13 -4 1 -15 -8 -25 -20 -13 -15 -14 -19 -4 -14 12 6 12
5 -1 -6 -9 -7 -14 -19 -11 -27 2 -8 0 -11 -5 -8 -6 4 -8 -13 -5 -44 4 -46 3
-51 -14 -47 -13 3 -18 11 -17 26 2 14 -1 21 -7 17 -6 -4 -10 8 -10 30 0 25 4
34 11 29 9 -5 10 1 5 20 -5 20 -4 26 5 20 9 -5 10 -2 6 9 -3 10 -2 17 3 17 6
0 9 3 8 8 -3 10 70 81 77 74 3 -3 5 0 5 6 0 6 7 9 15 6 8 -4 15 -2 15 3 0 5
24 9 54 9 32 0 52 -4 49 -10 -4 -5 1 -7 10 -3 10 4 17 1 17 -5 0 -6 2 -9 5 -6
10 10 71 -56 66 -71 -3 -10 0 -12 8 -6 10 5 11 2 6 -14 -8 -26 3 -27 22 -3 9
11 12 12 8 2 -4 -8 3 -4 15 10 12 14 19 18 15 10 -4 -8 5 -1 20 15 14 17 23
23 20 15 -4 -8 5 -1 20 15 14 17 23 23 20 15 -4 -8 8 1 25 20 17 19 28 28 24
20 -4 -8 33 26 82 76 49 50 67 65 39 34 -31 -34 -20 -25 29 23 43 43 75 73 71
65 -3 -7 2 -3 13 9 11 12 22 19 26 16 3 -4 6 -1 6 6 0 7 5 9 10 6 6 -3 10 -1
10 5 0 6 5 8 10 5 6 -3 10 -2 10 4 0 6 6 8 14 5 7 -3 16 2 19 10 4 9 17 16 29
15 22 0 22 -1 3 -9z m-952 -113 c-3 -5 0 -8 7 -5 17 5 67 -43 62 -59 -2 -7 1
-13 7 -13 6 0 11 -12 11 -26 0 -17 -4 -23 -12 -18 -8 5 -9 2 -5 -11 5 -11 1
-23 -10 -32 -10 -8 -12 -12 -5 -8 19 10 14 0 -15 -26 -14 -13 -23 -17 -19 -9
4 8 -2 4 -14 -10 -12 -14 -19 -19 -15 -13 4 9 1 11 -9 7 -9 -3 -14 -10 -11
-14 3 -4 -2 -11 -11 -14 -10 -4 -13 -2 -9 7 4 6 -3 1 -15 -13 -12 -14 -19 -19
-15 -12 10 19 0 14 -21 -10 -13 -14 -14 -19 -4 -14 9 5 8 2 -2 -7 -10 -8 -15
-17 -11 -20 3 -4 1 -7 -5 -7 -6 0 -9 -7 -5 -17 4 -11 3 -14 -5 -9 -8 5 -12 -4
-12 -29 0 -24 4 -34 11 -29 8 4 9 0 4 -15 -4 -13 -2 -21 5 -21 6 0 9 -4 5 -9
-3 -6 4 -15 15 -21 11 -6 17 -16 14 -22 -4 -6 -3 -8 4 -4 6 3 14 1 17 -5 8
-13 7 -15 -24 -24 -18 -5 -22 -4 -16 6 6 9 3 11 -8 6 -10 -4 -17 -1 -17 5 0 6
-2 9 -5 6 -9 -9 -67 51 -60 62 3 5 1 10 -4 10 -6 0 -11 16 -11 36 0 24 4 33
12 28 8 -5 9 0 6 14 -4 12 -2 22 4 22 5 0 7 4 4 9 -3 5 1 12 10 15 8 3 13 10
10 15 -3 4 4 17 16 27 12 11 18 13 13 5 -5 -9 1 -7 19 4 14 10 26 22 26 28 0
6 2 8 5 5 7 -7 82 65 77 75 -2 4 1 7 5 7 5 0 9 16 9 35 0 19 -4 35 -9 35 -4 0
-6 4 -3 9 3 4 -4 17 -16 27 -15 13 -19 14 -14 4 4 -8 0 -6 -8 4 -9 11 -16 16
-16 10 0 -9 -20 17 -20 27 0 3 20 6 45 6 26 0 42 -4 38 -10z m-233 -348 c0 -6
-7 -8 -16 -5 -10 4 -13 2 -8 -6 5 -8 2 -9 -9 -5 -10 4 -17 1 -17 -5 0 -6 -3
-8 -7 -5 -3 4 -12 -1 -20 -11 -9 -10 -12 -11 -7 -2 4 8 -7 2 -24 -14 -34 -32
-40 -41 -19 -31 6 4 4 0 -6 -8 -11 -9 -15 -21 -10 -32 4 -13 3 -16 -5 -11 -8
5 -12 -1 -12 -18 0 -14 5 -26 11 -26 6 0 8 -9 4 -20 -4 -13 -2 -20 6 -20 7 0
9 -3 6 -7 -4 -3 1 -12 11 -20 10 -9 11 -11 2 -7 -8 4 3 -10 25 -31 22 -21 43
-38 48 -37 4 1 7 -5 7 -13 0 -8 -7 -15 -15 -15 -8 0 -15 5 -15 11 0 6 -7 9
-15 5 -8 -3 -15 -1 -15 5 0 6 -5 7 -11 3 -7 -4 -20 4 -31 17 -11 13 -16 17
-12 9 4 -8 -5 -4 -19 9 -15 13 -24 27 -22 31 3 5 -2 10 -10 14 -8 3 -12 12 -9
21 3 8 2 15 -2 15 -5 0 -9 25 -9 55 0 30 4 55 8 55 5 0 5 5 2 10 -3 6 -1 10 5
10 6 0 9 4 6 9 -3 4 6 19 21 32 14 13 23 17 19 9 -6 -12 -5 -12 6 1 7 9 19 14
26 12 6 -3 12 0 12 6 0 6 12 8 32 4 22 -4 29 -3 24 5 -5 8 4 12 28 12 20 0 36
-5 36 -11z"/>
</g>
</svg>
