<?xml version="1.0" standalone="no"?>
<!DOCTYPE svg PUBLIC "-//W3C//DTD SVG 20010904//EN"
 "http://www.w3.org/TR/2001/REC-SVG-20010904/DTD/svg10.dtd">
<svg version="1.0" xmlns="http://www.w3.org/2000/svg"
 width="300.000000pt" height="300.000000pt" viewBox="0 0 300.000000 300.000000"
 preserveAspectRatio="xMidYMid meet">
<metadata>
Created by potrace 1.16, written by Peter Selinger 2001-2019
</metadata>
<g transform="translate(0.000000,300.000000) scale(0.100000,-0.100000)"
fill="#4b3963" stroke="none">
<path d="M1433 2615 c-13 -12 -23 -29 -23 -37 0 -7 -5 -19 -11 -25 -6 -6 -12
-41 -12 -76 -1 -79 12 -102 90 -156 32 -22 78 -61 103 -86 25 -25 53 -48 63
-51 10 -3 22 -16 27 -29 5 -13 33 -43 62 -66 29 -23 56 -50 60 -60 4 -11 13
-19 21 -19 7 0 22 -8 33 -17 11 -10 27 -22 36 -28 48 -32 198 -146 237 -182
25 -23 62 -54 81 -67 108 -77 211 -143 252 -163 25 -11 70 -37 99 -57 55 -37
75 -43 81 -27 2 6 30 6 73 -1 92 -14 214 9 243 47 11 14 22 21 26 18 3 -3 6 3
6 14 0 24 -21 44 -80 73 -70 35 -323 207 -648 441 -56 41 -138 99 -181 129
-42 30 -124 89 -182 131 -57 41 -149 106 -204 144 -55 38 -123 93 -152 122
-29 29 -58 53 -65 52 -7 -1 -23 -11 -35 -24z"/>
<path d="M673 2421 c-3 -12 -11 -17 -22 -14 -14 4 -18 -1 -18 -24 0 -15 -6
-55 -13 -88 -17 -84 6 -151 72 -214 27 -25 48 -48 48 -52 0 -20 296 -298 406
-382 153 -116 180 -137 210 -162 18 -14 36 -25 40 -25 5 0 27 -16 49 -36 22
-19 63 -47 90 -61 28 -14 64 -37 82 -50 18 -14 48 -26 67 -28 39 -4 67 -17 86
-39 7 -9 23 -16 37 -16 15 0 22 -4 18 -11 -4 -6 -1 -9 6 -8 8 2 41 -10 74 -26
115 -54 141 -64 200 -81 79 -22 165 -30 165 -14 0 8 10 9 30 5 47 -10 40 26
-14 67 -25 18 -104 78 -178 134 -73 55 -210 161 -304 235 -95 73 -245 191
-335 262 -237 184 -225 173 -210 191 10 12 11 16 1 16 -7 0 -35 21 -63 46 -57
51 -103 78 -117 69 -6 -3 -10 -1 -10 4 0 6 -5 11 -12 11 -6 0 -44 25 -84 55
-50 38 -72 60 -68 70 4 9 -1 18 -12 22 -11 3 -23 11 -27 17 -6 8 -10 7 -14 -2
-7 -17 -23 -5 -16 13 4 11 -2 15 -19 15 -27 0 -64 33 -54 49 8 12 -51 71 -71
71 -8 0 -17 -8 -20 -19z"/>
<path d="M134 2026 c-88 -42 -118 -79 -108 -132 8 -42 35 -74 62 -74 12 0 40
-30 76 -80 58 -80 310 -332 399 -399 26 -19 47 -39 47 -43 0 -4 37 -35 83 -69
45 -35 107 -84 137 -109 30 -26 62 -50 70 -54 39 -18 248 -154 285 -187 11 -9
43 -30 70 -45 28 -15 71 -41 97 -58 26 -17 88 -56 138 -86 50 -30 119 -75 153
-100 82 -59 252 -146 244 -125 -6 14 -4 14 23 0 16 -8 32 -19 35 -25 3 -5 17
-10 30 -10 13 0 37 -11 53 -25 32 -27 92 -45 92 -27 0 5 -10 17 -22 26 -16 11
-10 10 19 -4 76 -36 55 -3 -44 71 -54 40 -169 132 -256 203 -210 173 -248 200
-259 184 -5 -9 -8 -4 -8 15 0 19 -7 30 -22 37 -13 5 -43 29 -67 54 -42 43 -81
60 -81 35 0 -5 -5 -7 -11 -3 -8 4 -7 9 2 15 17 11 -3 29 -242 222 -69 56 -156
127 -193 157 -37 30 -76 55 -86 55 -21 1 -50 23 -50 39 0 7 -92 99 -205 206
-113 107 -205 199 -205 205 0 21 -145 165 -165 165 -11 0 -52 -15 -91 -34z"/>
<path d="M65 1680 c-3 -6 -3 -20 0 -31 6 -18 4 -20 -14 -14 -26 8 -27 -8 -4
-61 9 -22 15 -52 14 -67 -2 -37 18 -104 64 -207 45 -104 38 -91 108 -194 33
-47 66 -86 75 -86 8 0 37 14 64 31 35 23 51 40 55 61 3 15 10 31 14 34 5 3 9
25 9 48 0 40 -6 49 -87 137 -117 128 -174 197 -234 285 -27 41 -51 74 -54 74
-2 0 -7 -5 -10 -10z"/>
</g>
</svg>
